<mxfile host="app.diagrams.net" modified="2024-04-29T15:09:05.708Z" agent="Mozilla/5.0 (X11; Ubuntu; Linux x86_64; rv:125.0) Gecko/20100101 Firefox/125.0" etag="k47GcBImA4aoTx_uTTYj" version="24.2.8" type="device">
  <diagram name="Page-1" id="822b0af5-4adb-64df-f703-e8dfc1f81529">
    <mxGraphModel dx="1670" dy="934" grid="1" gridSize="10" guides="1" tooltips="1" connect="1" arrows="1" fold="1" page="1" pageScale="1" pageWidth="1169" pageHeight="827" background="none" math="1" shadow="0">
      <root>
        <mxCell id="0" />
        <mxCell id="1" parent="0" />
        <mxCell id="h4V8nAPMFZly05bqmjX1-2" value="Org B - Data Provider" style="swimlane;fontStyle=1;align=center;verticalAlign=top;childLayout=stackLayout;horizontal=1;startSize=43.8;horizontalStack=0;resizeParent=1;resizeParentMax=0;resizeLast=0;collapsible=0;marginBottom=0;swimlaneLine=0;swimlaneHead=1;swimlaneBody=1;" parent="1" vertex="1">
          <mxGeometry x="79" y="150" width="131" height="58.8" as="geometry" />
        </mxCell>
        <mxCell id="h4V8nAPMFZly05bqmjX1-3" style="line;strokeWidth=1;fillColor=none;align=left;verticalAlign=middle;spacingTop=-1;spacingLeft=3;spacingRight=3;rotatable=0;labelPosition=right;points=[];portConstraint=eastwest;strokeColor=inherit;" parent="h4V8nAPMFZly05bqmjX1-2" vertex="1">
          <mxGeometry y="43.8" width="131" height="15" as="geometry" />
        </mxCell>
        <mxCell id="h4V8nAPMFZly05bqmjX1-4" value="Org E - AI Provider" style="swimlane;fontStyle=1;align=center;verticalAlign=top;childLayout=stackLayout;horizontal=1;startSize=43.8;horizontalStack=0;resizeParent=1;resizeParentMax=0;resizeLast=0;collapsible=0;marginBottom=0;swimlaneLine=0;" parent="1" vertex="1">
          <mxGeometry x="740" y="91.2" width="112" height="58.8" as="geometry" />
        </mxCell>
        <mxCell id="h4V8nAPMFZly05bqmjX1-5" style="line;strokeWidth=1;fillColor=none;align=left;verticalAlign=middle;spacingTop=-1;spacingLeft=3;spacingRight=3;rotatable=0;labelPosition=right;points=[];portConstraint=eastwest;strokeColor=inherit;" parent="h4V8nAPMFZly05bqmjX1-4" vertex="1">
          <mxGeometry y="43.8" width="112" height="15" as="geometry" />
        </mxCell>
        <mxCell id="h4V8nAPMFZly05bqmjX1-20" value="2.2 Ressources" style="curved=1;startArrow=none;endArrow=block;endSize=16;endFill=0;exitX=1;exitY=0.5;rounded=0;exitDx=0;exitDy=0;entryX=0;entryY=0.5;entryDx=0;entryDy=0;" parent="1" source="h4V8nAPMFZly05bqmjX1-2" target="uGPSaHu-5Sx0lIMv9-vT-1" edge="1">
          <mxGeometry relative="1" as="geometry">
            <Array as="points" />
          </mxGeometry>
        </mxCell>
        <mxCell id="h4V8nAPMFZly05bqmjX1-23" value="3.1 consent" style="curved=0;startArrow=none;endArrow=open;endSize=12;exitX=0;exitY=0.75;entryX=1;entryY=0;rounded=0;entryDx=0;entryDy=0;exitDx=0;exitDy=0;" parent="1" source="h4V8nAPMFZly05bqmjX1-56" target="uGPSaHu-5Sx0lIMv9-vT-3" edge="1">
          <mxGeometry relative="1" as="geometry">
            <Array as="points" />
            <mxPoint x="606.2540914970532" y="242.79999999999995" as="sourcePoint" />
            <mxPoint x="842.5" y="290" as="targetPoint" />
          </mxGeometry>
        </mxCell>
        <mxCell id="h4V8nAPMFZly05bqmjX1-24" value="3.2 consent" style="curved=0;startArrow=none;endArrow=open;endSize=12;exitX=0;exitY=0.75;entryX=1;entryY=0.5;rounded=0;exitDx=0;exitDy=0;entryDx=0;entryDy=0;" parent="1" source="h4V8nAPMFZly05bqmjX1-57" target="uGPSaHu-5Sx0lIMv9-vT-3" edge="1">
          <mxGeometry relative="1" as="geometry">
            <Array as="points" />
            <mxPoint x="759.9336377688714" y="128.79999999999995" as="sourcePoint" />
            <mxPoint x="1014.8420080780697" y="110" as="targetPoint" />
          </mxGeometry>
        </mxCell>
        <mxCell id="h4V8nAPMFZly05bqmjX1-25" value="3.3 consent" style="curved=0;startArrow=none;endArrow=open;endSize=12;exitX=0.1;exitY=0.5;entryX=1;entryY=0.75;rounded=0;entryDx=0;entryDy=0;exitDx=0;exitDy=0;exitPerimeter=0;" parent="1" source="h4V8nAPMFZly05bqmjX1-58" target="uGPSaHu-5Sx0lIMv9-vT-3" edge="1">
          <mxGeometry relative="1" as="geometry">
            <Array as="points" />
            <mxPoint x="874.593275371351" y="128.79999999999995" as="sourcePoint" />
            <mxPoint x="1026.9700000000003" y="112.66000000000008" as="targetPoint" />
          </mxGeometry>
        </mxCell>
        <mxCell id="h4V8nAPMFZly05bqmjX1-27" value="4. build&#xa;Â execution plan" style="curved=0;startArrow=none;endArrow=open;endSize=12;exitX=0;exitY=0.75;rounded=0;exitDx=0;exitDy=0;entryX=0.5;entryY=0;entryDx=0;entryDy=0;dashed=1;" parent="1" source="uGPSaHu-5Sx0lIMv9-vT-2" target="h4V8nAPMFZly05bqmjX1-35" edge="1">
          <mxGeometry relative="1" as="geometry">
            <Array as="points" />
            <mxPoint x="416" y="340" as="targetPoint" />
            <mxPoint x="905" y="340" as="sourcePoint" />
          </mxGeometry>
        </mxCell>
        <mxCell id="h4V8nAPMFZly05bqmjX1-1" value="" style="shape=datastore;whiteSpace=wrap;html=1;fillColor=#d5e8d4;strokeColor=#82b366;" parent="1" vertex="1">
          <mxGeometry x="59" y="190" width="31" height="30" as="geometry" />
        </mxCell>
        <mxCell id="h4V8nAPMFZly05bqmjX1-28" value="Org A - Data Provider" style="swimlane;fontStyle=1;align=center;verticalAlign=top;childLayout=stackLayout;horizontal=1;startSize=43.8;horizontalStack=0;resizeParent=1;resizeParentMax=0;resizeLast=0;collapsible=0;marginBottom=0;swimlaneLine=0;swimlaneHead=1;swimlaneBody=1;" parent="1" vertex="1">
          <mxGeometry x="89" y="30" width="131" height="58.8" as="geometry" />
        </mxCell>
        <mxCell id="h4V8nAPMFZly05bqmjX1-29" style="line;strokeWidth=1;fillColor=none;align=left;verticalAlign=middle;spacingTop=-1;spacingLeft=3;spacingRight=3;rotatable=0;labelPosition=right;points=[];portConstraint=eastwest;strokeColor=inherit;" parent="h4V8nAPMFZly05bqmjX1-28" vertex="1">
          <mxGeometry y="43.8" width="131" height="15" as="geometry" />
        </mxCell>
        <mxCell id="h4V8nAPMFZly05bqmjX1-30" value="" style="shape=datastore;whiteSpace=wrap;html=1;" parent="1" vertex="1">
          <mxGeometry x="69" y="70" width="60" height="50" as="geometry" />
        </mxCell>
        <mxCell id="h4V8nAPMFZly05bqmjX1-31" value="2.1 Ressources" style="curved=1;startArrow=none;endArrow=block;endSize=16;endFill=0;exitX=1;exitY=0.5;entryX=0;entryY=0;rounded=0;exitDx=0;exitDy=0;entryDx=0;entryDy=0;" parent="1" source="h4V8nAPMFZly05bqmjX1-28" target="uGPSaHu-5Sx0lIMv9-vT-1" edge="1">
          <mxGeometry relative="1" as="geometry">
            <Array as="points" />
            <mxPoint x="211" y="179" as="sourcePoint" />
            <mxPoint x="370" y="109" as="targetPoint" />
          </mxGeometry>
        </mxCell>
        <mxCell id="h4V8nAPMFZly05bqmjX1-35" value="&lt;font style=&quot;font-size: 9px;&quot;&gt;exec_plan_id: 123&lt;/font&gt;" style="shape=datastore;whiteSpace=wrap;html=1;" parent="1" vertex="1">
          <mxGeometry x="170" y="300" width="84" height="50" as="geometry" />
        </mxCell>
        <mxCell id="h4V8nAPMFZly05bqmjX1-36" value="Org C - DissecML Service Provider" style="swimlane;fontStyle=1;align=center;verticalAlign=top;childLayout=stackLayout;horizontal=1;startSize=25;horizontalStack=0;resizeParent=1;resizeParentMax=0;resizeLast=0;collapsible=0;marginBottom=0;swimlaneLine=0;" parent="1" vertex="1">
          <mxGeometry x="330" y="22" width="220" height="38" as="geometry" />
        </mxCell>
        <mxCell id="h4V8nAPMFZly05bqmjX1-37" style="line;strokeWidth=1;fillColor=none;align=left;verticalAlign=middle;spacingTop=-1;spacingLeft=3;spacingRight=3;rotatable=0;labelPosition=right;points=[];portConstraint=eastwest;strokeColor=inherit;" parent="h4V8nAPMFZly05bqmjX1-36" vertex="1">
          <mxGeometry y="25" width="220" height="13" as="geometry" />
        </mxCell>
        <mxCell id="h4V8nAPMFZly05bqmjX1-38" value="2.3 Protocol orchestration" style="curved=1;startArrow=none;endArrow=block;endSize=16;endFill=0;exitX=0.5;exitY=1;entryX=0.5;entryY=0;rounded=0;exitDx=0;exitDy=0;entryDx=0;entryDy=0;" parent="1" source="h4V8nAPMFZly05bqmjX1-36" target="uGPSaHu-5Sx0lIMv9-vT-1" edge="1">
          <mxGeometry relative="1" as="geometry">
            <Array as="points" />
            <mxPoint x="220" y="59" as="sourcePoint" />
            <mxPoint x="364" y="94" as="targetPoint" />
          </mxGeometry>
        </mxCell>
        <mxCell id="h4V8nAPMFZly05bqmjX1-43" value="AI Model" style="swimlane;" parent="1" vertex="1">
          <mxGeometry x="1230" y="24.4" width="180" height="170" as="geometry">
            <mxRectangle x="920" y="480" width="90" height="30" as="alternateBounds" />
          </mxGeometry>
        </mxCell>
        <mxCell id="h4V8nAPMFZly05bqmjX1-44" value="&lt;pre&gt;&lt;code class=&quot;!whitespace-pre hljs language-diff&quot;&gt;&lt;span class=&quot;hljs-addition&quot;&gt;+-------------------+&lt;/span&gt;&lt;br&gt;| 01010101 10101010 |&lt;br&gt;| 10101010 01010101 |&lt;br&gt;| 01010101 10101010 |&lt;br&gt;| 10101010 01010101 |&lt;br&gt;| 01010101 10101010 |&lt;br&gt;| 10101010 01010101 |&lt;br&gt;&lt;span class=&quot;hljs-addition&quot;&gt;+-------------------+&lt;/span&gt;&lt;/code&gt;&lt;/pre&gt;" style="text;html=1;align=center;verticalAlign=middle;resizable=0;points=[];autosize=1;strokeColor=none;fillColor=none;" parent="h4V8nAPMFZly05bqmjX1-43" vertex="1">
          <mxGeometry y="20" width="180" height="150" as="geometry" />
        </mxCell>
        <mxCell id="h4V8nAPMFZly05bqmjX1-45" value="AI training plan" style="swimlane;" parent="1" vertex="1">
          <mxGeometry x="980.25" y="30" width="180" height="155" as="geometry" />
        </mxCell>
        <mxCell id="h4V8nAPMFZly05bqmjX1-48" value="&lt;div align=&quot;left&quot;&gt;{&lt;br&gt;&amp;nbsp; &quot;name&quot;: &quot;AI Model&quot;,&lt;br&gt;&amp;nbsp; &quot;version&quot;: &quot;1.0.0&quot;,&lt;br&gt;&amp;nbsp; &quot;parameters&quot;: {&lt;br&gt;&amp;nbsp;&amp;nbsp;&amp;nbsp; &quot;learningRate&quot;: 0.01,&lt;br&gt;&amp;nbsp;&amp;nbsp;&amp;nbsp; &quot;numLayers&quot;: 3&lt;br&gt;&amp;nbsp; }&lt;br&gt;}&lt;/div&gt;" style="text;html=1;align=left;verticalAlign=middle;resizable=0;points=[];autosize=1;strokeColor=none;fillColor=none;" parent="h4V8nAPMFZly05bqmjX1-45" vertex="1">
          <mxGeometry x="15" y="25" width="150" height="130" as="geometry" />
        </mxCell>
        <mxCell id="h4V8nAPMFZly05bqmjX1-55" value="" style="shape=datastore;whiteSpace=wrap;html=1;fillColor=#ffe6cc;strokeColor=#d79b00;" parent="1" vertex="1">
          <mxGeometry x="100" y="190" width="31" height="30" as="geometry" />
        </mxCell>
        <mxCell id="h4V8nAPMFZly05bqmjX1-59" value="" style="rounded=1;whiteSpace=wrap;html=1;fillColor=#dae8fc;strokeColor=#6c8ebf;" parent="1" vertex="1">
          <mxGeometry x="74" y="104.4" width="16" height="10" as="geometry" />
        </mxCell>
        <mxCell id="h4V8nAPMFZly05bqmjX1-60" value="3.4 consent" style="curved=0;startArrow=none;endArrow=open;endSize=12;rounded=0;exitX=0.5;exitY=1;exitDx=0;exitDy=0;" parent="1" source="h4V8nAPMFZly05bqmjX1-61" target="uGPSaHu-5Sx0lIMv9-vT-3" edge="1">
          <mxGeometry x="0.0423" y="2" relative="1" as="geometry">
            <Array as="points" />
            <mxPoint x="860" y="130" as="sourcePoint" />
            <mxPoint x="1051.1800000000003" y="111.82400000000007" as="targetPoint" />
            <mxPoint as="offset" />
          </mxGeometry>
        </mxCell>
        <mxCell id="h4V8nAPMFZly05bqmjX1-63" value="" style="rounded=1;whiteSpace=wrap;html=1;fillColor=#f8cecc;strokeColor=#b85450;" parent="1" vertex="1">
          <mxGeometry x="94" y="104.4" width="16" height="10" as="geometry" />
        </mxCell>
        <mxCell id="h4V8nAPMFZly05bqmjX1-64" value="Catalog&#xa;&#xa;&#xa;" style="swimlane;fontStyle=1;align=center;verticalAlign=top;childLayout=stackLayout;horizontal=1;startSize=25;horizontalStack=0;resizeParent=1;resizeParentMax=0;resizeLast=0;collapsible=0;marginBottom=0;swimlaneLine=0;" parent="1" vertex="1">
          <mxGeometry x="30.5" y="608" width="79.5" height="38" as="geometry" />
        </mxCell>
        <mxCell id="h4V8nAPMFZly05bqmjX1-65" style="line;strokeWidth=1;fillColor=none;align=left;verticalAlign=middle;spacingTop=-1;spacingLeft=3;spacingRight=3;rotatable=0;labelPosition=right;points=[];portConstraint=eastwest;strokeColor=inherit;" parent="h4V8nAPMFZly05bqmjX1-64" vertex="1">
          <mxGeometry y="25" width="79.5" height="13" as="geometry" />
        </mxCell>
        <mxCell id="h4V8nAPMFZly05bqmjX1-67" value="&lt;font style=&quot;font-size: 9px;&quot;&gt;exec_plan_id: 123&lt;/font&gt;" style="shape=datastore;whiteSpace=wrap;html=1;" parent="1" vertex="1">
          <mxGeometry x="6" y="638" width="84" height="50" as="geometry" />
        </mxCell>
        <mxCell id="h4V8nAPMFZly05bqmjX1-68" value="DissecML Service" style="swimlane;fontStyle=1;align=center;verticalAlign=top;childLayout=stackLayout;horizontal=1;startSize=25;horizontalStack=0;resizeParent=1;resizeParentMax=0;resizeLast=0;collapsible=0;marginBottom=0;swimlaneLine=0;" parent="1" vertex="1">
          <mxGeometry x="181" y="608" width="150" height="38" as="geometry" />
        </mxCell>
        <mxCell id="h4V8nAPMFZly05bqmjX1-69" style="line;strokeWidth=1;fillColor=none;align=left;verticalAlign=middle;spacingTop=-1;spacingLeft=3;spacingRight=3;rotatable=0;labelPosition=right;points=[];portConstraint=eastwest;strokeColor=inherit;" parent="h4V8nAPMFZly05bqmjX1-68" vertex="1">
          <mxGeometry y="25" width="150" height="13" as="geometry" />
        </mxCell>
        <mxCell id="h4V8nAPMFZly05bqmjX1-70" value="Start 123" style="curved=0;startArrow=none;endArrow=open;endSize=12;exitX=1;exitY=0.5;rounded=0;exitDx=0;exitDy=0;entryX=0;entryY=0.5;entryDx=0;entryDy=0;" parent="1" source="h4V8nAPMFZly05bqmjX1-64" target="h4V8nAPMFZly05bqmjX1-68" edge="1">
          <mxGeometry y="9" relative="1" as="geometry">
            <Array as="points" />
            <mxPoint x="426" y="167" as="sourcePoint" />
            <mxPoint x="170" y="627" as="targetPoint" />
            <mxPoint as="offset" />
          </mxGeometry>
        </mxCell>
        <mxCell id="h4V8nAPMFZly05bqmjX1-87" value="Get data" style="curved=0;startArrow=none;endArrow=open;endSize=12;exitX=1;exitY=0.5;rounded=0;exitDx=0;exitDy=0;entryX=0;entryY=0.5;entryDx=0;entryDy=0;" parent="1" source="h4V8nAPMFZly05bqmjX1-68" target="h4V8nAPMFZly05bqmjX1-71" edge="1">
          <mxGeometry relative="1" as="geometry">
            <Array as="points" />
            <mxPoint x="426" y="167" as="sourcePoint" />
            <mxPoint x="426" y="268" as="targetPoint" />
          </mxGeometry>
        </mxCell>
        <mxCell id="h4V8nAPMFZly05bqmjX1-88" value="Get data" style="curved=0;startArrow=none;endArrow=open;endSize=12;exitX=1;exitY=0.5;rounded=0;exitDx=0;exitDy=0;entryX=0;entryY=0.5;entryDx=0;entryDy=0;" parent="1" source="h4V8nAPMFZly05bqmjX1-68" target="h4V8nAPMFZly05bqmjX1-73" edge="1">
          <mxGeometry relative="1" as="geometry">
            <Array as="points" />
            <mxPoint x="420" y="618" as="sourcePoint" />
            <mxPoint x="503" y="529" as="targetPoint" />
          </mxGeometry>
        </mxCell>
        <mxCell id="h4V8nAPMFZly05bqmjX1-89" value="Get data" style="curved=0;startArrow=none;endArrow=open;endSize=12;exitX=1;exitY=0.5;rounded=0;exitDx=0;exitDy=0;entryX=0;entryY=0.5;entryDx=0;entryDy=0;" parent="1" source="h4V8nAPMFZly05bqmjX1-68" target="h4V8nAPMFZly05bqmjX1-75" edge="1">
          <mxGeometry relative="1" as="geometry">
            <Array as="points" />
            <mxPoint x="430" y="628" as="sourcePoint" />
            <mxPoint x="513" y="539" as="targetPoint" />
          </mxGeometry>
        </mxCell>
        <mxCell id="h4V8nAPMFZly05bqmjX1-90" value="" style="group" parent="1" vertex="1" connectable="0">
          <mxGeometry x="433.5" y="490.7" width="99.5" height="69.99999999999994" as="geometry" />
        </mxCell>
        <mxCell id="h4V8nAPMFZly05bqmjX1-71" value="Data Provider" style="swimlane;fontStyle=1;align=center;verticalAlign=top;childLayout=stackLayout;horizontal=1;startSize=43.8;horizontalStack=0;resizeParent=1;resizeParentMax=0;resizeLast=0;collapsible=0;marginBottom=0;swimlaneLine=0;swimlaneHead=1;swimlaneBody=1;" parent="h4V8nAPMFZly05bqmjX1-90" vertex="1">
          <mxGeometry x="11.5" width="88" height="58.8" as="geometry" />
        </mxCell>
        <mxCell id="h4V8nAPMFZly05bqmjX1-72" style="line;strokeWidth=1;fillColor=none;align=left;verticalAlign=middle;spacingTop=-1;spacingLeft=3;spacingRight=3;rotatable=0;labelPosition=right;points=[];portConstraint=eastwest;strokeColor=inherit;" parent="h4V8nAPMFZly05bqmjX1-71" vertex="1">
          <mxGeometry y="43.8" width="88" height="15" as="geometry" />
        </mxCell>
        <mxCell id="h4V8nAPMFZly05bqmjX1-77" value="" style="shape=datastore;whiteSpace=wrap;html=1;fillColor=#d5e8d4;strokeColor=#82b366;" parent="h4V8nAPMFZly05bqmjX1-90" vertex="1">
          <mxGeometry y="40" width="31" height="30" as="geometry" />
        </mxCell>
        <mxCell id="h4V8nAPMFZly05bqmjX1-91" value="" style="group" parent="1" vertex="1" connectable="0">
          <mxGeometry x="426.75" y="579.55" width="104" height="68.79999999999995" as="geometry" />
        </mxCell>
        <mxCell id="h4V8nAPMFZly05bqmjX1-73" value="Data Provider" style="swimlane;fontStyle=1;align=center;verticalAlign=top;childLayout=stackLayout;horizontal=1;startSize=43.8;horizontalStack=0;resizeParent=1;resizeParentMax=0;resizeLast=0;collapsible=0;marginBottom=0;swimlaneLine=0;swimlaneHead=1;swimlaneBody=1;" parent="h4V8nAPMFZly05bqmjX1-91" vertex="1">
          <mxGeometry x="14" width="90" height="58.8" as="geometry" />
        </mxCell>
        <mxCell id="h4V8nAPMFZly05bqmjX1-74" style="line;strokeWidth=1;fillColor=none;align=left;verticalAlign=middle;spacingTop=-1;spacingLeft=3;spacingRight=3;rotatable=0;labelPosition=right;points=[];portConstraint=eastwest;strokeColor=inherit;" parent="h4V8nAPMFZly05bqmjX1-73" vertex="1">
          <mxGeometry y="43.8" width="90" height="15" as="geometry" />
        </mxCell>
        <mxCell id="h4V8nAPMFZly05bqmjX1-85" value="" style="shape=datastore;whiteSpace=wrap;html=1;fillColor=#ffe6cc;strokeColor=#d79b00;" parent="h4V8nAPMFZly05bqmjX1-91" vertex="1">
          <mxGeometry y="38.799999999999955" width="31" height="30" as="geometry" />
        </mxCell>
        <mxCell id="h4V8nAPMFZly05bqmjX1-92" value="" style="group" parent="1" vertex="1" connectable="0">
          <mxGeometry x="400" y="678.9" width="133" height="84.40000000000009" as="geometry" />
        </mxCell>
        <mxCell id="h4V8nAPMFZly05bqmjX1-75" value="Data Provider" style="swimlane;fontStyle=1;align=center;verticalAlign=top;childLayout=stackLayout;horizontal=1;startSize=43.8;horizontalStack=0;resizeParent=1;resizeParentMax=0;resizeLast=0;collapsible=0;marginBottom=0;swimlaneLine=0;swimlaneHead=1;swimlaneBody=1;" parent="h4V8nAPMFZly05bqmjX1-92" vertex="1">
          <mxGeometry x="43" width="90" height="58.8" as="geometry" />
        </mxCell>
        <mxCell id="h4V8nAPMFZly05bqmjX1-76" style="line;strokeWidth=1;fillColor=none;align=left;verticalAlign=middle;spacingTop=-1;spacingLeft=3;spacingRight=3;rotatable=0;labelPosition=right;points=[];portConstraint=eastwest;strokeColor=inherit;" parent="h4V8nAPMFZly05bqmjX1-75" vertex="1">
          <mxGeometry y="43.8" width="90" height="15" as="geometry" />
        </mxCell>
        <mxCell id="h4V8nAPMFZly05bqmjX1-82" value="" style="shape=datastore;whiteSpace=wrap;html=1;" parent="h4V8nAPMFZly05bqmjX1-92" vertex="1">
          <mxGeometry y="34.40000000000009" width="60" height="50" as="geometry" />
        </mxCell>
        <mxCell id="h4V8nAPMFZly05bqmjX1-83" value="" style="rounded=1;whiteSpace=wrap;html=1;fillColor=#dae8fc;strokeColor=#6c8ebf;" parent="h4V8nAPMFZly05bqmjX1-92" vertex="1">
          <mxGeometry x="10" y="60" width="16" height="10" as="geometry" />
        </mxCell>
        <mxCell id="h4V8nAPMFZly05bqmjX1-84" value="" style="rounded=1;whiteSpace=wrap;html=1;fillColor=#f8cecc;strokeColor=#b85450;" parent="h4V8nAPMFZly05bqmjX1-92" vertex="1">
          <mxGeometry x="30" y="60" width="16" height="10" as="geometry" />
        </mxCell>
        <mxCell id="h4V8nAPMFZly05bqmjX1-93" value="StartÂ &#xa;AI training" style="curved=0;startArrow=none;endArrow=open;endSize=12;exitX=1;exitY=0.5;rounded=0;exitDx=0;exitDy=0;entryX=0;entryY=0.5;entryDx=0;entryDy=0;" parent="1" source="h4V8nAPMFZly05bqmjX1-71" target="h4V8nAPMFZly05bqmjX1-94" edge="1">
          <mxGeometry relative="1" as="geometry">
            <Array as="points" />
            <mxPoint x="720" y="536" as="sourcePoint" />
            <mxPoint x="680" y="518" as="targetPoint" />
          </mxGeometry>
        </mxCell>
        <mxCell id="h4V8nAPMFZly05bqmjX1-102" value="" style="endArrow=classic;html=1;rounded=0;entryX=-0.019;entryY=0.414;entryDx=0;entryDy=0;entryPerimeter=0;exitX=1;exitY=0.5;exitDx=0;exitDy=0;" parent="1" source="h4V8nAPMFZly05bqmjX1-45" target="h4V8nAPMFZly05bqmjX1-44" edge="1">
          <mxGeometry width="50" height="50" relative="1" as="geometry">
            <mxPoint x="480.25" y="380" as="sourcePoint" />
            <mxPoint x="530.25" y="330" as="targetPoint" />
          </mxGeometry>
        </mxCell>
        <mxCell id="h4V8nAPMFZly05bqmjX1-113" value="" style="group" parent="1" vertex="1" connectable="0">
          <mxGeometry x="630" y="468" width="230" height="78.2" as="geometry" />
        </mxCell>
        <mxCell id="h4V8nAPMFZly05bqmjX1-94" value="" style="shape=ext;double=1;rounded=1;whiteSpace=wrap;html=1;" parent="h4V8nAPMFZly05bqmjX1-113" vertex="1">
          <mxGeometry width="230" height="72.8288707799768" as="geometry" />
        </mxCell>
        <mxCell id="h4V8nAPMFZly05bqmjX1-95" value="" style="shape=datastore;whiteSpace=wrap;html=1;fillColor=#d5e8d4;strokeColor=#82b366;" parent="h4V8nAPMFZly05bqmjX1-113" vertex="1">
          <mxGeometry x="10" y="22.75902211874275" width="30" height="27.3108265424913" as="geometry" />
        </mxCell>
        <mxCell id="h4V8nAPMFZly05bqmjX1-100" value="AI model&#xa;+---------+&#xa;| 0 1 0 1 |&#xa;| 1 0 1 0 |&#xa;| 1 0 1 0 |&#xa;+---------+" style="text;whiteSpace=wrap;fontSize=8;" parent="h4V8nAPMFZly05bqmjX1-113" vertex="1">
          <mxGeometry x="60" y="-3.07253898950046e-14" width="70" height="74.46752037252627" as="geometry" />
        </mxCell>
        <mxCell id="h4V8nAPMFZly05bqmjX1-107" value="" style="shape=flexArrow;endArrow=classic;html=1;rounded=0;" parent="h4V8nAPMFZly05bqmjX1-113" edge="1">
          <mxGeometry width="50" height="50" relative="1" as="geometry">
            <mxPoint x="110" y="40.58388824214206" as="sourcePoint" />
            <mxPoint x="150" y="40.58388824214206" as="targetPoint" />
          </mxGeometry>
        </mxCell>
        <mxCell id="h4V8nAPMFZly05bqmjX1-108" value="+" style="text;html=1;align=center;verticalAlign=middle;resizable=0;points=[];autosize=1;strokeColor=none;fillColor=none;fontStyle=1" parent="h4V8nAPMFZly05bqmjX1-113" vertex="1">
          <mxGeometry x="40" y="22.75902211874275" width="30" height="30" as="geometry" />
        </mxCell>
        <mxCell id="h4V8nAPMFZly05bqmjX1-111" value="Local update&#xa;+---------+&#xa;| 1 1 0 1 |&#xa;| 0 0 0 0 |&#xa;| 1 0 0 0 |&#xa;+---------+" style="text;whiteSpace=wrap;fontSize=8;" parent="h4V8nAPMFZly05bqmjX1-113" vertex="1">
          <mxGeometry x="160" y="-3.07253898950046e-14" width="50" height="58.3541327124564" as="geometry" />
        </mxCell>
        <mxCell id="h4V8nAPMFZly05bqmjX1-114" value="" style="group" parent="1" vertex="1" connectable="0">
          <mxGeometry x="630" y="567.45" width="230" height="85.89999999999992" as="geometry" />
        </mxCell>
        <mxCell id="h4V8nAPMFZly05bqmjX1-115" value="" style="shape=ext;double=1;rounded=1;whiteSpace=wrap;html=1;" parent="h4V8nAPMFZly05bqmjX1-114" vertex="1">
          <mxGeometry width="230" height="80" as="geometry" />
        </mxCell>
        <mxCell id="h4V8nAPMFZly05bqmjX1-116" value="" style="shape=datastore;whiteSpace=wrap;html=1;fillColor=#ffe6cc;strokeColor=#d79b00;" parent="h4V8nAPMFZly05bqmjX1-114" vertex="1">
          <mxGeometry x="10" y="25" width="30" height="30" as="geometry" />
        </mxCell>
        <mxCell id="h4V8nAPMFZly05bqmjX1-117" value="AI model&#xa;+---------+&#xa;| 0 1 0 1 |&#xa;| 1 0 1 0 |&#xa;| 1 0 1 0 |&#xa;+---------+" style="text;whiteSpace=wrap;fontSize=8;" parent="h4V8nAPMFZly05bqmjX1-114" vertex="1">
          <mxGeometry x="60" y="4.099999999999966" width="70" height="81.8" as="geometry" />
        </mxCell>
        <mxCell id="h4V8nAPMFZly05bqmjX1-118" value="" style="shape=flexArrow;endArrow=classic;html=1;rounded=0;" parent="h4V8nAPMFZly05bqmjX1-114" edge="1">
          <mxGeometry width="50" height="50" relative="1" as="geometry">
            <mxPoint x="110" y="44.579999999999984" as="sourcePoint" />
            <mxPoint x="150" y="44.579999999999984" as="targetPoint" />
          </mxGeometry>
        </mxCell>
        <mxCell id="h4V8nAPMFZly05bqmjX1-119" value="+" style="text;html=1;align=center;verticalAlign=middle;resizable=0;points=[];autosize=1;strokeColor=none;fillColor=none;fontStyle=1" parent="h4V8nAPMFZly05bqmjX1-114" vertex="1">
          <mxGeometry x="40" y="25" width="30" height="30" as="geometry" />
        </mxCell>
        <mxCell id="h4V8nAPMFZly05bqmjX1-120" value="Local update&#xa;+---------+&#xa;| 1 1 0 1 |&#xa;| 0 0 0 0 |&#xa;| 1 0 0 0 |&#xa;+---------+" style="text;whiteSpace=wrap;fontSize=8;" parent="h4V8nAPMFZly05bqmjX1-114" vertex="1">
          <mxGeometry x="160" y="4.099999999999966" width="50" height="64.1" as="geometry" />
        </mxCell>
        <mxCell id="h4V8nAPMFZly05bqmjX1-125" value="StartÂ &#xa;AI training" style="curved=0;startArrow=none;endArrow=open;endSize=12;exitX=1;exitY=0.5;rounded=0;exitDx=0;exitDy=0;entryX=0;entryY=0.5;entryDx=0;entryDy=0;" parent="1" source="h4V8nAPMFZly05bqmjX1-73" target="h4V8nAPMFZly05bqmjX1-115" edge="1">
          <mxGeometry relative="1" as="geometry">
            <Array as="points" />
            <mxPoint x="611" y="529" as="sourcePoint" />
            <mxPoint x="690" y="514" as="targetPoint" />
          </mxGeometry>
        </mxCell>
        <mxCell id="h4V8nAPMFZly05bqmjX1-126" value="" style="group" parent="1" vertex="1" connectable="0">
          <mxGeometry x="630" y="668" width="230" height="85.89999999999992" as="geometry" />
        </mxCell>
        <mxCell id="h4V8nAPMFZly05bqmjX1-127" value="" style="shape=ext;double=1;rounded=1;whiteSpace=wrap;html=1;" parent="h4V8nAPMFZly05bqmjX1-126" vertex="1">
          <mxGeometry width="230" height="80" as="geometry" />
        </mxCell>
        <mxCell id="h4V8nAPMFZly05bqmjX1-128" value="" style="shape=datastore;whiteSpace=wrap;html=1;fillColor=#dae8fc;strokeColor=#6c8ebf;" parent="h4V8nAPMFZly05bqmjX1-126" vertex="1">
          <mxGeometry x="10" y="25" width="30" height="30" as="geometry" />
        </mxCell>
        <mxCell id="h4V8nAPMFZly05bqmjX1-129" value="AI model&#xa;+---------+&#xa;| 0 1 0 1 |&#xa;| 1 0 1 0 |&#xa;| 1 0 1 0 |&#xa;+---------+" style="text;whiteSpace=wrap;fontSize=8;" parent="h4V8nAPMFZly05bqmjX1-126" vertex="1">
          <mxGeometry x="60" y="4.099999999999966" width="70" height="81.8" as="geometry" />
        </mxCell>
        <mxCell id="h4V8nAPMFZly05bqmjX1-130" value="" style="shape=flexArrow;endArrow=classic;html=1;rounded=0;" parent="h4V8nAPMFZly05bqmjX1-126" edge="1">
          <mxGeometry width="50" height="50" relative="1" as="geometry">
            <mxPoint x="110" y="44.579999999999984" as="sourcePoint" />
            <mxPoint x="150" y="44.579999999999984" as="targetPoint" />
          </mxGeometry>
        </mxCell>
        <mxCell id="h4V8nAPMFZly05bqmjX1-131" value="+" style="text;html=1;align=center;verticalAlign=middle;resizable=0;points=[];autosize=1;strokeColor=none;fillColor=none;fontStyle=1" parent="h4V8nAPMFZly05bqmjX1-126" vertex="1">
          <mxGeometry x="40" y="25" width="30" height="30" as="geometry" />
        </mxCell>
        <mxCell id="h4V8nAPMFZly05bqmjX1-132" value="Local update&#xa;+---------+&#xa;| 1 1 0 1 |&#xa;| 0 0 0 0 |&#xa;| 1 0 0 0 |&#xa;+---------+" style="text;whiteSpace=wrap;fontSize=8;" parent="h4V8nAPMFZly05bqmjX1-126" vertex="1">
          <mxGeometry x="160" y="4.099999999999966" width="50" height="64.1" as="geometry" />
        </mxCell>
        <mxCell id="h4V8nAPMFZly05bqmjX1-133" value="" style="group" parent="1" vertex="1" connectable="0">
          <mxGeometry x="630" y="764.2" width="230" height="85.89999999999992" as="geometry" />
        </mxCell>
        <mxCell id="h4V8nAPMFZly05bqmjX1-134" value="" style="shape=ext;double=1;rounded=1;whiteSpace=wrap;html=1;" parent="h4V8nAPMFZly05bqmjX1-133" vertex="1">
          <mxGeometry width="230" height="80" as="geometry" />
        </mxCell>
        <mxCell id="h4V8nAPMFZly05bqmjX1-135" value="" style="shape=datastore;whiteSpace=wrap;html=1;fillColor=#f8cecc;strokeColor=#b85450;" parent="h4V8nAPMFZly05bqmjX1-133" vertex="1">
          <mxGeometry x="10" y="25" width="30" height="30" as="geometry" />
        </mxCell>
        <mxCell id="h4V8nAPMFZly05bqmjX1-136" value="AI model&#xa;+---------+&#xa;| 0 1 0 1 |&#xa;| 1 0 1 0 |&#xa;| 1 0 1 0 |&#xa;+---------+" style="text;whiteSpace=wrap;fontSize=8;" parent="h4V8nAPMFZly05bqmjX1-133" vertex="1">
          <mxGeometry x="60" y="4.099999999999966" width="70" height="81.8" as="geometry" />
        </mxCell>
        <mxCell id="h4V8nAPMFZly05bqmjX1-137" value="" style="shape=flexArrow;endArrow=classic;html=1;rounded=0;" parent="h4V8nAPMFZly05bqmjX1-133" edge="1">
          <mxGeometry width="50" height="50" relative="1" as="geometry">
            <mxPoint x="110" y="44.579999999999984" as="sourcePoint" />
            <mxPoint x="150" y="44.579999999999984" as="targetPoint" />
          </mxGeometry>
        </mxCell>
        <mxCell id="h4V8nAPMFZly05bqmjX1-138" value="+" style="text;html=1;align=center;verticalAlign=middle;resizable=0;points=[];autosize=1;strokeColor=none;fillColor=none;fontStyle=1" parent="h4V8nAPMFZly05bqmjX1-133" vertex="1">
          <mxGeometry x="40" y="25" width="30" height="30" as="geometry" />
        </mxCell>
        <mxCell id="h4V8nAPMFZly05bqmjX1-139" value="Local update&#xa;+---------+&#xa;| 1 1 0 1 |&#xa;| 0 0 0 0 |&#xa;| 1 0 0 0 |&#xa;+---------+" style="text;whiteSpace=wrap;fontSize=8;" parent="h4V8nAPMFZly05bqmjX1-133" vertex="1">
          <mxGeometry x="160" y="4.099999999999966" width="50" height="64.1" as="geometry" />
        </mxCell>
        <mxCell id="h4V8nAPMFZly05bqmjX1-140" value="StartÂ &#xa;AI training" style="curved=0;startArrow=none;endArrow=open;endSize=12;exitX=1;exitY=0.5;rounded=0;exitDx=0;exitDy=0;entryX=0;entryY=0.5;entryDx=0;entryDy=0;" parent="1" source="h4V8nAPMFZly05bqmjX1-75" target="h4V8nAPMFZly05bqmjX1-127" edge="1">
          <mxGeometry relative="1" as="geometry">
            <Array as="points" />
            <mxPoint x="613" y="620" as="sourcePoint" />
            <mxPoint x="690" y="617" as="targetPoint" />
          </mxGeometry>
        </mxCell>
        <mxCell id="h4V8nAPMFZly05bqmjX1-141" value="StartÂ &#xa;AI training" style="curved=0;startArrow=none;endArrow=open;endSize=12;exitX=1;exitY=0.5;rounded=0;exitDx=0;exitDy=0;entryX=0;entryY=0.5;entryDx=0;entryDy=0;" parent="1" source="h4V8nAPMFZly05bqmjX1-75" target="h4V8nAPMFZly05bqmjX1-134" edge="1">
          <mxGeometry relative="1" as="geometry">
            <Array as="points" />
            <mxPoint x="623" y="630" as="sourcePoint" />
            <mxPoint x="700" y="627" as="targetPoint" />
          </mxGeometry>
        </mxCell>
        <mxCell id="h4V8nAPMFZly05bqmjX1-142" value="DissecML&#xa;Service" style="swimlane;fontStyle=1;align=center;verticalAlign=top;childLayout=stackLayout;horizontal=1;startSize=25;horizontalStack=0;resizeParent=1;resizeParentMax=0;resizeLast=0;collapsible=0;marginBottom=0;swimlaneLine=0;" parent="1" vertex="1">
          <mxGeometry x="950.25" y="479.40999999999997" width="80" height="50" as="geometry" />
        </mxCell>
        <mxCell id="h4V8nAPMFZly05bqmjX1-143" style="line;strokeWidth=1;fillColor=none;align=left;verticalAlign=middle;spacingTop=-1;spacingLeft=3;spacingRight=3;rotatable=0;labelPosition=right;points=[];portConstraint=eastwest;strokeColor=inherit;" parent="h4V8nAPMFZly05bqmjX1-142" vertex="1">
          <mxGeometry y="25" width="80" height="25" as="geometry" />
        </mxCell>
        <mxCell id="h4V8nAPMFZly05bqmjX1-144" value="Anonymize" style="curved=0;startArrow=none;endArrow=open;endSize=12;exitX=1;exitY=0.5;rounded=0;exitDx=0;exitDy=0;entryX=0;entryY=0.5;entryDx=0;entryDy=0;" parent="1" source="h4V8nAPMFZly05bqmjX1-94" target="h4V8nAPMFZly05bqmjX1-142" edge="1">
          <mxGeometry relative="1" as="geometry">
            <Array as="points" />
            <mxPoint x="596" y="529" as="sourcePoint" />
            <mxPoint x="690" y="514" as="targetPoint" />
          </mxGeometry>
        </mxCell>
        <mxCell id="h4V8nAPMFZly05bqmjX1-145" value="Anonymize" style="curved=0;startArrow=none;endArrow=open;endSize=12;exitX=1;exitY=0.5;rounded=0;exitDx=0;exitDy=0;entryX=0;entryY=0.5;entryDx=0;entryDy=0;" parent="1" source="h4V8nAPMFZly05bqmjX1-115" target="h4V8nAPMFZly05bqmjX1-160" edge="1">
          <mxGeometry relative="1" as="geometry">
            <Array as="points" />
            <mxPoint x="920" y="514" as="sourcePoint" />
            <mxPoint x="990" y="608" as="targetPoint" />
          </mxGeometry>
        </mxCell>
        <mxCell id="h4V8nAPMFZly05bqmjX1-146" value="Anonymize" style="curved=0;startArrow=none;endArrow=open;endSize=12;exitX=1;exitY=0.5;rounded=0;exitDx=0;exitDy=0;entryX=0;entryY=0.5;entryDx=0;entryDy=0;" parent="1" source="h4V8nAPMFZly05bqmjX1-127" target="h4V8nAPMFZly05bqmjX1-162" edge="1">
          <mxGeometry x="-0.1321" y="-2" relative="1" as="geometry">
            <Array as="points" />
            <mxPoint x="930" y="524" as="sourcePoint" />
            <mxPoint x="980" y="668" as="targetPoint" />
            <mxPoint as="offset" />
          </mxGeometry>
        </mxCell>
        <mxCell id="h4V8nAPMFZly05bqmjX1-147" value="Anonymize" style="curved=0;startArrow=none;endArrow=open;endSize=12;exitX=1;exitY=0.5;rounded=0;exitDx=0;exitDy=0;entryX=0;entryY=0.5;entryDx=0;entryDy=0;" parent="1" source="h4V8nAPMFZly05bqmjX1-134" target="h4V8nAPMFZly05bqmjX1-164" edge="1">
          <mxGeometry relative="1" as="geometry">
            <Array as="points" />
            <mxPoint x="940" y="534" as="sourcePoint" />
            <mxPoint x="990" y="688" as="targetPoint" />
          </mxGeometry>
        </mxCell>
        <mxCell id="h4V8nAPMFZly05bqmjX1-151" value="Data Aggregator 1" style="swimlane;fontStyle=1;align=center;verticalAlign=top;childLayout=stackLayout;horizontal=1;startSize=25;horizontalStack=0;resizeParent=1;resizeParentMax=0;resizeLast=0;collapsible=0;marginBottom=0;swimlaneLine=0;fillColor=#a0522d;strokeColor=#6D1F00;fontColor=#ffffff;" parent="1" vertex="1">
          <mxGeometry x="1160.25" y="483.59999999999997" width="120" height="50" as="geometry" />
        </mxCell>
        <mxCell id="h4V8nAPMFZly05bqmjX1-152" style="line;strokeWidth=1;fillColor=none;align=left;verticalAlign=middle;spacingTop=-1;spacingLeft=3;spacingRight=3;rotatable=0;labelPosition=right;points=[];portConstraint=eastwest;strokeColor=none;" parent="h4V8nAPMFZly05bqmjX1-151" vertex="1">
          <mxGeometry y="25" width="120" height="25" as="geometry" />
        </mxCell>
        <mxCell id="h4V8nAPMFZly05bqmjX1-156" value="Data Aggregator 2" style="swimlane;fontStyle=1;align=center;verticalAlign=top;childLayout=stackLayout;horizontal=1;startSize=25;horizontalStack=0;resizeParent=1;resizeParentMax=0;resizeLast=0;collapsible=0;marginBottom=0;swimlaneLine=0;fillColor=#e3c800;strokeColor=#B09500;fontColor=#000000;" parent="1" vertex="1">
          <mxGeometry x="1160.25" y="683" width="120" height="50" as="geometry" />
        </mxCell>
        <mxCell id="h4V8nAPMFZly05bqmjX1-157" style="line;strokeWidth=1;fillColor=none;align=left;verticalAlign=middle;spacingTop=-1;spacingLeft=3;spacingRight=3;rotatable=0;labelPosition=right;points=[];portConstraint=eastwest;strokeColor=none;" parent="h4V8nAPMFZly05bqmjX1-156" vertex="1">
          <mxGeometry y="25" width="120" height="25" as="geometry" />
        </mxCell>
        <mxCell id="h4V8nAPMFZly05bqmjX1-158" value="Share 1" style="curved=1;startArrow=none;endArrow=open;endSize=12;exitX=1;exitY=0.5;rounded=0;exitDx=0;exitDy=0;entryX=0;entryY=0.25;entryDx=0;entryDy=0;fillColor=#bac8d3;strokeColor=#A0522D;labelBackgroundColor=none;" parent="1" source="h4V8nAPMFZly05bqmjX1-142" target="h4V8nAPMFZly05bqmjX1-151" edge="1">
          <mxGeometry x="-0.2563" y="-25" relative="1" as="geometry">
            <Array as="points">
              <mxPoint x="1090.25" y="468" />
            </Array>
            <mxPoint x="880.25" y="514" as="sourcePoint" />
            <mxPoint x="960.25" y="514" as="targetPoint" />
            <mxPoint as="offset" />
          </mxGeometry>
        </mxCell>
        <mxCell id="h4V8nAPMFZly05bqmjX1-159" value="Share 2" style="curved=1;startArrow=none;endArrow=open;endSize=12;exitX=1;exitY=0.5;rounded=0;exitDx=0;exitDy=0;entryX=0;entryY=0;entryDx=0;entryDy=0;fillColor=#e3c800;strokeColor=#E3C800;" parent="1" source="h4V8nAPMFZly05bqmjX1-142" target="h4V8nAPMFZly05bqmjX1-156" edge="1">
          <mxGeometry x="0.7983" y="20" relative="1" as="geometry">
            <Array as="points">
              <mxPoint x="1090.25" y="668" />
            </Array>
            <mxPoint x="1040.25" y="514" as="sourcePoint" />
            <mxPoint x="1150.25" y="552" as="targetPoint" />
            <mxPoint as="offset" />
          </mxGeometry>
        </mxCell>
        <mxCell id="h4V8nAPMFZly05bqmjX1-160" value="DissecML&#xa;Service" style="swimlane;fontStyle=1;align=center;verticalAlign=top;childLayout=stackLayout;horizontal=1;startSize=25;horizontalStack=0;resizeParent=1;resizeParentMax=0;resizeLast=0;collapsible=0;marginBottom=0;swimlaneLine=0;" parent="1" vertex="1">
          <mxGeometry x="950.25" y="578.65" width="80" height="50" as="geometry" />
        </mxCell>
        <mxCell id="h4V8nAPMFZly05bqmjX1-161" style="line;strokeWidth=1;fillColor=none;align=left;verticalAlign=middle;spacingTop=-1;spacingLeft=3;spacingRight=3;rotatable=0;labelPosition=right;points=[];portConstraint=eastwest;strokeColor=inherit;" parent="h4V8nAPMFZly05bqmjX1-160" vertex="1">
          <mxGeometry y="25" width="80" height="25" as="geometry" />
        </mxCell>
        <mxCell id="h4V8nAPMFZly05bqmjX1-162" value="DissecML&#xa;Service" style="swimlane;fontStyle=1;align=center;verticalAlign=top;childLayout=stackLayout;horizontal=1;startSize=25;horizontalStack=0;resizeParent=1;resizeParentMax=0;resizeLast=0;collapsible=0;marginBottom=0;swimlaneLine=0;" parent="1" vertex="1">
          <mxGeometry x="950.25" y="683" width="80" height="50" as="geometry" />
        </mxCell>
        <mxCell id="h4V8nAPMFZly05bqmjX1-163" style="line;strokeWidth=1;fillColor=none;align=left;verticalAlign=middle;spacingTop=-1;spacingLeft=3;spacingRight=3;rotatable=0;labelPosition=right;points=[];portConstraint=eastwest;strokeColor=inherit;" parent="h4V8nAPMFZly05bqmjX1-162" vertex="1">
          <mxGeometry y="25" width="80" height="25" as="geometry" />
        </mxCell>
        <mxCell id="h4V8nAPMFZly05bqmjX1-164" value="DissecML&#xa;Service" style="swimlane;fontStyle=1;align=center;verticalAlign=top;childLayout=stackLayout;horizontal=1;startSize=25;horizontalStack=0;resizeParent=1;resizeParentMax=0;resizeLast=0;collapsible=0;marginBottom=0;swimlaneLine=0;" parent="1" vertex="1">
          <mxGeometry x="950.25" y="779.2" width="80" height="50" as="geometry" />
        </mxCell>
        <mxCell id="h4V8nAPMFZly05bqmjX1-165" style="line;strokeWidth=1;fillColor=none;align=left;verticalAlign=middle;spacingTop=-1;spacingLeft=3;spacingRight=3;rotatable=0;labelPosition=right;points=[];portConstraint=eastwest;strokeColor=inherit;" parent="h4V8nAPMFZly05bqmjX1-164" vertex="1">
          <mxGeometry y="25" width="80" height="25" as="geometry" />
        </mxCell>
        <mxCell id="h4V8nAPMFZly05bqmjX1-166" value="Share 1" style="curved=1;startArrow=none;endArrow=open;endSize=12;exitX=1;exitY=0.5;rounded=0;exitDx=0;exitDy=0;entryX=0;entryY=0.452;entryDx=0;entryDy=0;entryPerimeter=0;fillColor=#bac8d3;strokeColor=#A0522D;" parent="1" source="h4V8nAPMFZly05bqmjX1-160" target="h4V8nAPMFZly05bqmjX1-151" edge="1">
          <mxGeometry x="-0.006" y="-15" relative="1" as="geometry">
            <Array as="points">
              <mxPoint x="1090.25" y="498" />
            </Array>
            <mxPoint x="1040.25" y="514" as="sourcePoint" />
            <mxPoint x="1150.25" y="552" as="targetPoint" />
            <mxPoint as="offset" />
          </mxGeometry>
        </mxCell>
        <mxCell id="h4V8nAPMFZly05bqmjX1-167" value="Share 2" style="curved=1;startArrow=none;endArrow=open;endSize=12;exitX=1;exitY=0.5;rounded=0;exitDx=0;exitDy=0;entryX=0;entryY=0.5;entryDx=0;entryDy=0;fillColor=#e3c800;strokeColor=#E3C800;" parent="1" source="h4V8nAPMFZly05bqmjX1-160" target="h4V8nAPMFZly05bqmjX1-156" edge="1">
          <mxGeometry x="0.5798" y="20" relative="1" as="geometry">
            <Array as="points">
              <mxPoint x="1090.25" y="708" />
            </Array>
            <mxPoint x="1040.25" y="514" as="sourcePoint" />
            <mxPoint x="1150.25" y="688" as="targetPoint" />
            <mxPoint as="offset" />
          </mxGeometry>
        </mxCell>
        <mxCell id="h4V8nAPMFZly05bqmjX1-168" value="Share 1" style="curved=1;startArrow=none;endArrow=open;endSize=12;exitX=1;exitY=0.5;rounded=0;exitDx=0;exitDy=0;entryX=0;entryY=0.5;entryDx=0;entryDy=0;fillColor=#bac8d3;strokeColor=#A0522D;" parent="1" source="h4V8nAPMFZly05bqmjX1-162" target="h4V8nAPMFZly05bqmjX1-151" edge="1">
          <mxGeometry x="0.4391" y="-12" relative="1" as="geometry">
            <Array as="points">
              <mxPoint x="1090.25" y="558" />
            </Array>
            <mxPoint x="1040.25" y="614" as="sourcePoint" />
            <mxPoint x="1150.25" y="562" as="targetPoint" />
            <mxPoint y="-1" as="offset" />
          </mxGeometry>
        </mxCell>
        <mxCell id="h4V8nAPMFZly05bqmjX1-169" value="Share 1" style="curved=1;startArrow=none;endArrow=open;endSize=12;exitX=1;exitY=0.5;rounded=0;exitDx=0;exitDy=0;entryX=0;entryY=1;entryDx=0;entryDy=0;fillColor=#bac8d3;strokeColor=#A0522D;" parent="1" source="h4V8nAPMFZly05bqmjX1-164" target="h4V8nAPMFZly05bqmjX1-151" edge="1">
          <mxGeometry x="0.6757" y="-1" relative="1" as="geometry">
            <Array as="points" />
            <mxPoint x="1050.25" y="624" as="sourcePoint" />
            <mxPoint x="1160.25" y="572" as="targetPoint" />
            <mxPoint as="offset" />
          </mxGeometry>
        </mxCell>
        <mxCell id="h4V8nAPMFZly05bqmjX1-170" value="Share 2" style="curved=1;startArrow=none;endArrow=open;endSize=12;exitX=1;exitY=0.5;rounded=0;exitDx=0;exitDy=0;entryX=0;entryY=0.5;entryDx=0;entryDy=0;fillColor=#e3c800;strokeColor=#E3C800;" parent="1" source="h4V8nAPMFZly05bqmjX1-162" target="h4V8nAPMFZly05bqmjX1-156" edge="1">
          <mxGeometry x="0.4241" y="17" relative="1" as="geometry">
            <Array as="points">
              <mxPoint x="1090.25" y="768" />
            </Array>
            <mxPoint x="1040.25" y="514" as="sourcePoint" />
            <mxPoint x="1150.25" y="688" as="targetPoint" />
            <mxPoint as="offset" />
          </mxGeometry>
        </mxCell>
        <mxCell id="h4V8nAPMFZly05bqmjX1-171" value="Share 2" style="curved=1;startArrow=none;endArrow=open;endSize=12;exitX=1;exitY=0.5;rounded=0;exitDx=0;exitDy=0;entryX=0;entryY=1;entryDx=0;entryDy=0;fillColor=#e3c800;strokeColor=#E3C800;" parent="1" source="h4V8nAPMFZly05bqmjX1-164" target="h4V8nAPMFZly05bqmjX1-156" edge="1">
          <mxGeometry x="0.0144" y="13" relative="1" as="geometry">
            <Array as="points">
              <mxPoint x="1130.25" y="788" />
            </Array>
            <mxPoint x="1050.25" y="524" as="sourcePoint" />
            <mxPoint x="1160.25" y="698" as="targetPoint" />
            <mxPoint as="offset" />
          </mxGeometry>
        </mxCell>
        <mxCell id="h4V8nAPMFZly05bqmjX1-174" value="Main &#xa;Data Aggregator&#xa;&#xa;" style="swimlane;fontStyle=1;align=center;verticalAlign=top;childLayout=stackLayout;horizontal=1;startSize=25;horizontalStack=0;resizeParent=1;resizeParentMax=0;resizeLast=0;collapsible=0;marginBottom=0;swimlaneLine=0;fillColor=none;strokeColor=#23445d;" parent="1" vertex="1">
          <mxGeometry x="1330.25" y="578.65" width="120" height="50" as="geometry" />
        </mxCell>
        <mxCell id="h4V8nAPMFZly05bqmjX1-175" style="line;strokeWidth=1;fillColor=none;align=left;verticalAlign=middle;spacingTop=-1;spacingLeft=3;spacingRight=3;rotatable=0;labelPosition=right;points=[];portConstraint=eastwest;strokeColor=inherit;" parent="h4V8nAPMFZly05bqmjX1-174" vertex="1">
          <mxGeometry y="25" width="120" height="25" as="geometry" />
        </mxCell>
        <mxCell id="h4V8nAPMFZly05bqmjX1-176" value="Aggregated shares" style="curved=0;startArrow=none;endArrow=open;endSize=12;exitX=1;exitY=0.5;rounded=0;exitDx=0;exitDy=0;entryX=0;entryY=0;entryDx=0;entryDy=0;" parent="1" source="h4V8nAPMFZly05bqmjX1-151" target="h4V8nAPMFZly05bqmjX1-174" edge="1">
          <mxGeometry relative="1" as="geometry">
            <Array as="points" />
            <mxPoint x="880.25" y="514" as="sourcePoint" />
            <mxPoint x="960.25" y="514" as="targetPoint" />
          </mxGeometry>
        </mxCell>
        <mxCell id="h4V8nAPMFZly05bqmjX1-177" value="Aggregated shares" style="curved=0;startArrow=none;endArrow=open;endSize=12;exitX=1;exitY=0.5;rounded=0;exitDx=0;exitDy=0;entryX=0;entryY=1;entryDx=0;entryDy=0;" parent="1" source="h4V8nAPMFZly05bqmjX1-156" target="h4V8nAPMFZly05bqmjX1-174" edge="1">
          <mxGeometry relative="1" as="geometry">
            <Array as="points" />
            <mxPoint x="1290.25" y="519" as="sourcePoint" />
            <mxPoint x="1360.25" y="589" as="targetPoint" />
          </mxGeometry>
        </mxCell>
        <mxCell id="h4V8nAPMFZly05bqmjX1-178" value="" style="curved=0;startArrow=none;endArrow=open;endSize=12;exitX=1;exitY=0.5;rounded=0;exitDx=0;exitDy=0;entryX=0;entryY=0.5;entryDx=0;entryDy=0;" parent="1" source="h4V8nAPMFZly05bqmjX1-174" target="h4V8nAPMFZly05bqmjX1-180" edge="1">
          <mxGeometry x="1" y="40" relative="1" as="geometry">
            <Array as="points" />
            <mxPoint x="1290.25" y="718" as="sourcePoint" />
            <mxPoint x="1490.25" y="604" as="targetPoint" />
            <mxPoint x="40" y="40" as="offset" />
          </mxGeometry>
        </mxCell>
        <mxCell id="h4V8nAPMFZly05bqmjX1-182" value="&lt;div&gt;Trained model&lt;/div&gt;" style="edgeLabel;html=1;align=center;verticalAlign=middle;resizable=0;points=[];" parent="h4V8nAPMFZly05bqmjX1-178" vertex="1" connectable="0">
          <mxGeometry x="-0.0413" y="-3" relative="1" as="geometry">
            <mxPoint y="-14" as="offset" />
          </mxGeometry>
        </mxCell>
        <mxCell id="h4V8nAPMFZly05bqmjX1-179" value="Sync" style="curved=0;startArrow=none;endArrow=classic;exitX=0.5;exitY=1;rounded=0;exitDx=0;exitDy=0;endFill=1;shape=link;" parent="1" source="h4V8nAPMFZly05bqmjX1-151" target="h4V8nAPMFZly05bqmjX1-156" edge="1">
          <mxGeometry relative="1" as="geometry">
            <Array as="points" />
            <mxPoint x="880.25" y="514" as="sourcePoint" />
            <mxPoint x="960.25" y="514" as="targetPoint" />
          </mxGeometry>
        </mxCell>
        <mxCell id="h4V8nAPMFZly05bqmjX1-180" value="Catalog&#xa;&#xa;&#xa;" style="swimlane;fontStyle=1;align=center;verticalAlign=top;childLayout=stackLayout;horizontal=1;startSize=25;horizontalStack=0;resizeParent=1;resizeParentMax=0;resizeLast=0;collapsible=0;marginBottom=0;swimlaneLine=0;" parent="1" vertex="1">
          <mxGeometry x="1550.25" y="584.65" width="99.5" height="38" as="geometry" />
        </mxCell>
        <mxCell id="h4V8nAPMFZly05bqmjX1-181" style="line;strokeWidth=1;fillColor=none;align=left;verticalAlign=middle;spacingTop=-1;spacingLeft=3;spacingRight=3;rotatable=0;labelPosition=right;points=[];portConstraint=eastwest;strokeColor=inherit;" parent="h4V8nAPMFZly05bqmjX1-180" vertex="1">
          <mxGeometry y="25" width="99.5" height="13" as="geometry" />
        </mxCell>
        <mxCell id="h4V8nAPMFZly05bqmjX1-184" value="" style="shape=datastore;whiteSpace=wrap;html=1;" parent="1" vertex="1">
          <mxGeometry x="1170" y="529.4100000000001" width="30" height="30" as="geometry" />
        </mxCell>
        <mxCell id="h4V8nAPMFZly05bqmjX1-185" value="" style="shape=datastore;whiteSpace=wrap;html=1;" parent="1" vertex="1">
          <mxGeometry x="1170" y="723.9000000000001" width="30" height="30" as="geometry" />
        </mxCell>
        <mxCell id="uGPSaHu-5Sx0lIMv9-vT-1" value="&lt;b&gt;Contract&lt;/b&gt;" style="rounded=0;whiteSpace=wrap;html=1;" parent="1" vertex="1">
          <mxGeometry x="380" y="200" width="100" height="30" as="geometry" />
        </mxCell>
        <mxCell id="uGPSaHu-5Sx0lIMv9-vT-2" value="&lt;b&gt;Catalog&lt;/b&gt;" style="rounded=0;whiteSpace=wrap;html=1;" parent="1" vertex="1">
          <mxGeometry x="380" y="250" width="100" height="30" as="geometry" />
        </mxCell>
        <mxCell id="uGPSaHu-5Sx0lIMv9-vT-3" value="&lt;b&gt;Consent&lt;/b&gt;" style="rounded=0;whiteSpace=wrap;html=1;" parent="1" vertex="1">
          <mxGeometry x="380" y="300" width="100" height="30" as="geometry" />
        </mxCell>
        <mxCell id="uGPSaHu-5Sx0lIMv9-vT-6" value="&lt;div&gt;&lt;span style=&quot;background-color: initial;&quot;&gt;Org X - Data Intermediary&lt;/span&gt;&lt;br&gt;&lt;/div&gt;" style="text;html=1;align=center;verticalAlign=middle;resizable=0;points=[];autosize=1;strokeColor=none;fillColor=none;fontStyle=1" parent="1" vertex="1">
          <mxGeometry x="350" y="340" width="160" height="30" as="geometry" />
        </mxCell>
        <mxCell id="uGPSaHu-5Sx0lIMv9-vT-8" value="1. AI Plan" style="curved=1;startArrow=none;endArrow=block;endSize=16;endFill=0;exitX=0.015;exitY=0.603;entryX=1;entryY=0.5;rounded=0;exitDx=0;exitDy=0;entryDx=0;entryDy=0;exitPerimeter=0;" parent="1" source="h4V8nAPMFZly05bqmjX1-4" target="uGPSaHu-5Sx0lIMv9-vT-2" edge="1">
          <mxGeometry relative="1" as="geometry">
            <Array as="points" />
            <mxPoint x="771" y="180.00000000000006" as="sourcePoint" />
            <mxPoint x="490" y="182.48000000000008" as="targetPoint" />
          </mxGeometry>
        </mxCell>
        <mxCell id="uGPSaHu-5Sx0lIMv9-vT-9" value="Org D - Data Aggregator Service Provider" style="swimlane;fontStyle=1;align=center;verticalAlign=top;childLayout=stackLayout;horizontal=1;startSize=25;horizontalStack=0;resizeParent=1;resizeParentMax=0;resizeLast=0;collapsible=0;marginBottom=0;swimlaneLine=0;" parent="1" vertex="1">
          <mxGeometry x="580" y="22" width="250" height="38" as="geometry" />
        </mxCell>
        <mxCell id="uGPSaHu-5Sx0lIMv9-vT-10" style="line;strokeWidth=1;fillColor=none;align=left;verticalAlign=middle;spacingTop=-1;spacingLeft=3;spacingRight=3;rotatable=0;labelPosition=right;points=[];portConstraint=eastwest;strokeColor=inherit;" parent="uGPSaHu-5Sx0lIMv9-vT-9" vertex="1">
          <mxGeometry y="25" width="250" height="13" as="geometry" />
        </mxCell>
        <mxCell id="uGPSaHu-5Sx0lIMv9-vT-11" value="2.4 Aggregator" style="curved=1;startArrow=none;endArrow=block;endSize=16;endFill=0;exitX=0.486;exitY=0.603;entryX=1;entryY=0.25;rounded=0;exitDx=0;exitDy=0;entryDx=0;entryDy=0;exitPerimeter=0;" parent="1" source="uGPSaHu-5Sx0lIMv9-vT-10" target="uGPSaHu-5Sx0lIMv9-vT-1" edge="1">
          <mxGeometry relative="1" as="geometry">
            <Array as="points" />
            <mxPoint x="349" y="70" as="sourcePoint" />
            <mxPoint x="440" y="170" as="targetPoint" />
          </mxGeometry>
        </mxCell>
        <mxCell id="uGPSaHu-5Sx0lIMv9-vT-12" value="" style="endArrow=none;html=1;rounded=0;entryX=0.5;entryY=1;entryDx=0;entryDy=0;exitX=0.5;exitY=0;exitDx=0;exitDy=0;" parent="1" source="uGPSaHu-5Sx0lIMv9-vT-2" target="uGPSaHu-5Sx0lIMv9-vT-1" edge="1">
          <mxGeometry width="50" height="50" relative="1" as="geometry">
            <mxPoint x="520" y="460" as="sourcePoint" />
            <mxPoint x="570" y="410" as="targetPoint" />
          </mxGeometry>
        </mxCell>
        <mxCell id="uGPSaHu-5Sx0lIMv9-vT-13" value="" style="endArrow=none;html=1;rounded=0;entryX=0.5;entryY=0;entryDx=0;entryDy=0;exitX=0.5;exitY=1;exitDx=0;exitDy=0;" parent="1" source="uGPSaHu-5Sx0lIMv9-vT-2" target="uGPSaHu-5Sx0lIMv9-vT-3" edge="1">
          <mxGeometry width="50" height="50" relative="1" as="geometry">
            <mxPoint x="440" y="260" as="sourcePoint" />
            <mxPoint x="440" y="240" as="targetPoint" />
          </mxGeometry>
        </mxCell>
        <mxCell id="uGPSaHu-5Sx0lIMv9-vT-18" value="" style="group" parent="1" vertex="1" connectable="0">
          <mxGeometry x="752" y="200" width="30" height="193.60000000000002" as="geometry" />
        </mxCell>
        <mxCell id="h4V8nAPMFZly05bqmjX1-56" value="" style="shape=actor;whiteSpace=wrap;html=1;fillColor=#d5e8d4;strokeColor=#82b366;" parent="uGPSaHu-5Sx0lIMv9-vT-18" vertex="1">
          <mxGeometry width="30" height="38.8" as="geometry" />
        </mxCell>
        <mxCell id="h4V8nAPMFZly05bqmjX1-57" value="" style="shape=actor;whiteSpace=wrap;html=1;fillColor=#ffe6cc;strokeColor=#d79b00;" parent="uGPSaHu-5Sx0lIMv9-vT-18" vertex="1">
          <mxGeometry y="54.80000000000001" width="30" height="38.8" as="geometry" />
        </mxCell>
        <mxCell id="h4V8nAPMFZly05bqmjX1-58" value="" style="shape=actor;whiteSpace=wrap;html=1;fillColor=#dae8fc;strokeColor=#6c8ebf;" parent="uGPSaHu-5Sx0lIMv9-vT-18" vertex="1">
          <mxGeometry y="104.80000000000001" width="30" height="38.8" as="geometry" />
        </mxCell>
        <mxCell id="h4V8nAPMFZly05bqmjX1-61" value="" style="shape=actor;whiteSpace=wrap;html=1;fillColor=#f8cecc;strokeColor=#b85450;" parent="uGPSaHu-5Sx0lIMv9-vT-18" vertex="1">
          <mxGeometry y="154.8" width="30" height="38.8" as="geometry" />
        </mxCell>
        <mxCell id="uGPSaHu-5Sx0lIMv9-vT-19" value="2.0. AI Plan" style="curved=1;startArrow=none;endArrow=block;endSize=16;endFill=0;exitX=-0.022;exitY=0.617;entryX=1;entryY=0.75;rounded=0;exitDx=0;exitDy=0;entryDx=0;entryDy=0;exitPerimeter=0;" parent="1" source="h4V8nAPMFZly05bqmjX1-4" target="uGPSaHu-5Sx0lIMv9-vT-1" edge="1">
          <mxGeometry relative="1" as="geometry">
            <Array as="points" />
            <mxPoint x="782" y="150" as="sourcePoint" />
            <mxPoint x="490" y="235" as="targetPoint" />
          </mxGeometry>
        </mxCell>
        <mxCell id="uGPSaHu-5Sx0lIMv9-vT-20" value="Execution plan build&amp;nbsp;" style="text;html=1;align=center;verticalAlign=middle;resizable=0;points=[];autosize=1;strokeColor=#001DBC;fillColor=#0050ef;fontStyle=1;fontColor=#ffffff;fontSize=20;" parent="1" vertex="1">
          <mxGeometry x="310" y="385" width="210" height="40" as="geometry" />
        </mxCell>
        <mxCell id="uGPSaHu-5Sx0lIMv9-vT-21" value="Decentralized training&amp;nbsp;" style="text;html=1;align=center;verticalAlign=middle;resizable=0;points=[];autosize=1;strokeColor=#001DBC;fillColor=#0050ef;fontStyle=1;fontColor=#ffffff;fontSize=20;" parent="1" vertex="1">
          <mxGeometry x="74" y="770" width="220" height="40" as="geometry" />
        </mxCell>
        <mxCell id="yO6hfBPIhU9H3jWmT5L4-42" value="Org E - AI Provider" style="swimlane;fontStyle=1;align=center;verticalAlign=top;childLayout=stackLayout;horizontal=1;startSize=43.8;horizontalStack=0;resizeParent=1;resizeParentMax=0;resizeLast=0;collapsible=0;marginBottom=0;swimlaneLine=0;" vertex="1" parent="1">
          <mxGeometry x="946.25" y="1370" width="133.75" height="58.8" as="geometry" />
        </mxCell>
        <mxCell id="yO6hfBPIhU9H3jWmT5L4-43" style="line;strokeWidth=1;fillColor=none;align=left;verticalAlign=middle;spacingTop=-1;spacingLeft=3;spacingRight=3;rotatable=0;labelPosition=right;points=[];portConstraint=eastwest;strokeColor=inherit;" vertex="1" parent="yO6hfBPIhU9H3jWmT5L4-42">
          <mxGeometry y="43.8" width="133.75" height="15" as="geometry" />
        </mxCell>
        <mxCell id="yO6hfBPIhU9H3jWmT5L4-55" value="Org C - DissecML Service Provider" style="swimlane;fontStyle=1;align=center;verticalAlign=middle;childLayout=stackLayout;horizontal=1;startSize=139;horizontalStack=0;resizeParent=1;resizeParentMax=0;resizeLast=0;collapsible=0;marginBottom=0;swimlaneLine=0;" vertex="1" parent="1">
          <mxGeometry x="600" y="1001.5" width="220" height="168.5" as="geometry" />
        </mxCell>
        <mxCell id="yO6hfBPIhU9H3jWmT5L4-57" value="1. Start execution plan" style="curved=0;startArrow=none;endArrow=block;endSize=16;endFill=0;exitX=0.5;exitY=0;rounded=0;exitDx=0;exitDy=0;entryX=0.5;entryY=1;entryDx=0;entryDy=0;" edge="1" parent="1" source="yO6hfBPIhU9H3jWmT5L4-63" target="yO6hfBPIhU9H3jWmT5L4-55">
          <mxGeometry relative="1" as="geometry">
            <Array as="points" />
            <mxPoint x="412.5" y="1137" as="sourcePoint" />
            <mxPoint x="568" y="1150" as="targetPoint" />
          </mxGeometry>
        </mxCell>
        <mxCell id="yO6hfBPIhU9H3jWmT5L4-63" value="&lt;b&gt;Catalog&lt;/b&gt;" style="rounded=0;whiteSpace=wrap;html=1;" vertex="1" parent="1">
          <mxGeometry x="660" y="1335.7999999999997" width="100" height="30" as="geometry" />
        </mxCell>
        <mxCell id="yO6hfBPIhU9H3jWmT5L4-65" value="Org X -&lt;br&gt;&lt;div&gt;&lt;span style=&quot;background-color: initial;&quot;&gt;Data Intermediary&lt;/span&gt;&lt;br&gt;&lt;/div&gt;" style="text;html=1;align=center;verticalAlign=middle;resizable=0;points=[];autosize=1;strokeColor=none;fillColor=none;fontStyle=1" vertex="1" parent="1">
          <mxGeometry x="650" y="1374.9999999999998" width="120" height="40" as="geometry" />
        </mxCell>
        <mxCell id="yO6hfBPIhU9H3jWmT5L4-69" value="5. Anonymized results" style="curved=1;startArrow=none;endArrow=block;endSize=16;endFill=0;exitX=1;exitY=0.5;rounded=0;exitDx=0;exitDy=0;entryX=0;entryY=0.5;entryDx=0;entryDy=0;" edge="1" parent="1" source="yO6hfBPIhU9H3jWmT5L4-55" target="yO6hfBPIhU9H3jWmT5L4-117">
          <mxGeometry x="-0.0013" relative="1" as="geometry">
            <Array as="points" />
            <mxPoint x="1135.0000000000005" y="1079.9989999999998" as="sourcePoint" />
            <mxPoint x="1108" y="1140" as="targetPoint" />
            <mxPoint as="offset" />
          </mxGeometry>
        </mxCell>
        <mxCell id="yO6hfBPIhU9H3jWmT5L4-78" value="Decentralized training&amp;nbsp; - org" style="text;html=1;align=center;verticalAlign=middle;resizable=0;points=[];autosize=1;strokeColor=#001DBC;fillColor=#0050ef;fontStyle=1;fontColor=#ffffff;fontSize=20;" vertex="1" parent="1">
          <mxGeometry x="59" y="1520" width="270" height="40" as="geometry" />
        </mxCell>
        <mxCell id="yO6hfBPIhU9H3jWmT5L4-80" value="2.2" style="curved=1;startArrow=none;endArrow=block;endSize=16;endFill=0;exitX=0;exitY=0.75;rounded=0;exitDx=0;exitDy=0;entryX=1;entryY=0.25;entryDx=0;entryDy=0;fillColor=#dae8fc;strokeColor=#6c8ebf;" edge="1" parent="1" source="yO6hfBPIhU9H3jWmT5L4-55" target="yO6hfBPIhU9H3jWmT5L4-50">
          <mxGeometry relative="1" as="geometry">
            <Array as="points" />
            <mxPoint x="633" y="1338" as="sourcePoint" />
            <mxPoint x="618" y="1098" as="targetPoint" />
          </mxGeometry>
        </mxCell>
        <mxCell id="yO6hfBPIhU9H3jWmT5L4-95" value="" style="group;fillColor=#ffe6cc;strokeColor=#d79b00;" vertex="1" connectable="0" parent="1">
          <mxGeometry x="104.88" y="1274" width="158.25" height="182" as="geometry" />
        </mxCell>
        <mxCell id="yO6hfBPIhU9H3jWmT5L4-87" value="&lt;b&gt;Org B - Data Provider&lt;/b&gt;" style="rounded=0;whiteSpace=wrap;html=1;verticalAlign=top;" vertex="1" parent="yO6hfBPIhU9H3jWmT5L4-95">
          <mxGeometry width="158.25" height="182" as="geometry" />
        </mxCell>
        <mxCell id="yO6hfBPIhU9H3jWmT5L4-88" value="PLRS&#xa;" style="swimlane;fontStyle=1;align=center;verticalAlign=top;childLayout=stackLayout;horizontal=1;startSize=43.8;horizontalStack=0;resizeParent=1;resizeParentMax=0;resizeLast=0;collapsible=0;marginBottom=0;swimlaneLine=0;swimlaneHead=1;swimlaneBody=1;" vertex="1" parent="yO6hfBPIhU9H3jWmT5L4-95">
          <mxGeometry x="37.25" y="42" width="81" height="58.8" as="geometry" />
        </mxCell>
        <mxCell id="yO6hfBPIhU9H3jWmT5L4-89" style="line;strokeWidth=1;fillColor=none;align=left;verticalAlign=middle;spacingTop=-1;spacingLeft=3;spacingRight=3;rotatable=0;labelPosition=right;points=[];portConstraint=eastwest;strokeColor=inherit;" vertex="1" parent="yO6hfBPIhU9H3jWmT5L4-88">
          <mxGeometry y="43.8" width="81" height="15" as="geometry" />
        </mxCell>
        <mxCell id="yO6hfBPIhU9H3jWmT5L4-90" value="" style="shape=datastore;whiteSpace=wrap;html=1;fillColor=#d5e8d4;strokeColor=#82b366;" vertex="1" parent="yO6hfBPIhU9H3jWmT5L4-95">
          <mxGeometry x="18.25" y="62" width="31" height="30" as="geometry" />
        </mxCell>
        <mxCell id="yO6hfBPIhU9H3jWmT5L4-91" value="PLRS&#xa;" style="swimlane;fontStyle=1;align=center;verticalAlign=top;childLayout=stackLayout;horizontal=1;startSize=43.8;horizontalStack=0;resizeParent=1;resizeParentMax=0;resizeLast=0;collapsible=0;marginBottom=0;swimlaneLine=0;swimlaneHead=1;swimlaneBody=1;" vertex="1" parent="yO6hfBPIhU9H3jWmT5L4-95">
          <mxGeometry x="37.25" y="113.20000000000005" width="81" height="58.8" as="geometry" />
        </mxCell>
        <mxCell id="yO6hfBPIhU9H3jWmT5L4-92" style="line;strokeWidth=1;fillColor=none;align=left;verticalAlign=middle;spacingTop=-1;spacingLeft=3;spacingRight=3;rotatable=0;labelPosition=right;points=[];portConstraint=eastwest;strokeColor=inherit;" vertex="1" parent="yO6hfBPIhU9H3jWmT5L4-91">
          <mxGeometry y="43.8" width="81" height="15" as="geometry" />
        </mxCell>
        <mxCell id="yO6hfBPIhU9H3jWmT5L4-94" value="" style="shape=datastore;whiteSpace=wrap;html=1;fillColor=#ffe6cc;strokeColor=#d79b00;" vertex="1" parent="yO6hfBPIhU9H3jWmT5L4-95">
          <mxGeometry x="18.25" y="132" width="31" height="30" as="geometry" />
        </mxCell>
        <mxCell id="yO6hfBPIhU9H3jWmT5L4-84" value="2.4" style="curved=1;startArrow=none;endArrow=block;endSize=16;endFill=0;exitX=0;exitY=0.75;rounded=0;exitDx=0;exitDy=0;entryX=1;entryY=0.5;entryDx=0;entryDy=0;fillColor=#ffe6cc;strokeColor=#d79b00;" edge="1" parent="1" source="yO6hfBPIhU9H3jWmT5L4-55" target="yO6hfBPIhU9H3jWmT5L4-91">
          <mxGeometry relative="1" as="geometry">
            <Array as="points" />
            <mxPoint x="563" y="1098" as="sourcePoint" />
            <mxPoint x="411" y="1351" as="targetPoint" />
          </mxGeometry>
        </mxCell>
        <mxCell id="yO6hfBPIhU9H3jWmT5L4-81" value="2.3" style="curved=1;startArrow=none;endArrow=block;endSize=16;endFill=0;exitX=0;exitY=0.75;rounded=0;exitDx=0;exitDy=0;entryX=1;entryY=0.5;entryDx=0;entryDy=0;fillColor=#d5e8d4;strokeColor=#82b366;" edge="1" parent="1" source="yO6hfBPIhU9H3jWmT5L4-55" target="yO6hfBPIhU9H3jWmT5L4-88">
          <mxGeometry relative="1" as="geometry">
            <Array as="points" />
            <mxPoint x="563" y="1098" as="sourcePoint" />
            <mxPoint x="402.4999999999993" y="1228.0000000000002" as="targetPoint" />
          </mxGeometry>
        </mxCell>
        <mxCell id="yO6hfBPIhU9H3jWmT5L4-96" value="3.2" style="curved=1;startArrow=none;endArrow=block;endSize=16;endFill=0;exitX=1;exitY=0;rounded=0;exitDx=0;exitDy=0;entryX=0;entryY=0.5;entryDx=0;entryDy=0;fillColor=#f8cecc;strokeColor=#b85450;" edge="1" parent="1" source="yO6hfBPIhU9H3jWmT5L4-50" target="yO6hfBPIhU9H3jWmT5L4-141">
          <mxGeometry relative="1" as="geometry">
            <Array as="points" />
            <mxPoint x="543" y="1088" as="sourcePoint" />
            <mxPoint x="338" y="1179" as="targetPoint" />
          </mxGeometry>
        </mxCell>
        <mxCell id="yO6hfBPIhU9H3jWmT5L4-103" value="3.3" style="curved=1;startArrow=none;endArrow=block;endSize=16;endFill=0;exitX=1;exitY=0.75;rounded=0;exitDx=0;exitDy=0;entryX=0;entryY=0.5;entryDx=0;entryDy=0;fillColor=#d5e8d4;strokeColor=#82b366;" edge="1" parent="1" source="yO6hfBPIhU9H3jWmT5L4-88" target="yO6hfBPIhU9H3jWmT5L4-139">
          <mxGeometry x="-0.517" y="-6" relative="1" as="geometry">
            <Array as="points" />
            <mxPoint x="292" y="1147" as="sourcePoint" />
            <mxPoint x="338" y="1378.1999999999998" as="targetPoint" />
            <mxPoint as="offset" />
          </mxGeometry>
        </mxCell>
        <mxCell id="yO6hfBPIhU9H3jWmT5L4-106" value="3.1" style="curved=1;startArrow=none;endArrow=block;endSize=16;endFill=0;exitX=1;exitY=0;rounded=0;exitDx=0;exitDy=0;entryX=0;entryY=0.5;entryDx=0;entryDy=0;fillColor=#dae8fc;strokeColor=#6c8ebf;" edge="1" parent="1" source="yO6hfBPIhU9H3jWmT5L4-50" target="yO6hfBPIhU9H3jWmT5L4-142">
          <mxGeometry x="-0.0063" relative="1" as="geometry">
            <Array as="points" />
            <mxPoint x="292" y="1147" as="sourcePoint" />
            <mxPoint x="338" y="1119" as="targetPoint" />
            <mxPoint as="offset" />
          </mxGeometry>
        </mxCell>
        <mxCell id="yO6hfBPIhU9H3jWmT5L4-107" value="3.4" style="curved=1;startArrow=none;endArrow=block;endSize=16;endFill=0;exitX=1;exitY=0.75;rounded=0;exitDx=0;exitDy=0;entryX=0;entryY=0.5;entryDx=0;entryDy=0;fillColor=#ffe6cc;strokeColor=#d79b00;" edge="1" parent="1" source="yO6hfBPIhU9H3jWmT5L4-91" target="yO6hfBPIhU9H3jWmT5L4-140">
          <mxGeometry x="-0.5284" y="-4" relative="1" as="geometry">
            <Array as="points" />
            <mxPoint x="295" y="1307" as="sourcePoint" />
            <mxPoint x="338" y="1437.0000000000005" as="targetPoint" />
            <mxPoint as="offset" />
          </mxGeometry>
        </mxCell>
        <mxCell id="yO6hfBPIhU9H3jWmT5L4-108" value="" style="group" vertex="1" connectable="0" parent="1">
          <mxGeometry x="90" y="1090" width="152" height="120.8" as="geometry" />
        </mxCell>
        <mxCell id="yO6hfBPIhU9H3jWmT5L4-50" value="Org A - Data Provider" style="swimlane;fontStyle=1;align=center;verticalAlign=top;childLayout=stackLayout;horizontal=1;startSize=43.8;horizontalStack=0;resizeParent=1;resizeParentMax=0;resizeLast=0;collapsible=0;marginBottom=0;swimlaneLine=0;swimlaneHead=1;swimlaneBody=1;" vertex="1" parent="yO6hfBPIhU9H3jWmT5L4-108">
          <mxGeometry x="21" width="131" height="66.22574257425742" as="geometry" />
        </mxCell>
        <mxCell id="yO6hfBPIhU9H3jWmT5L4-51" style="line;strokeWidth=1;fillColor=none;align=left;verticalAlign=middle;spacingTop=-1;spacingLeft=3;spacingRight=3;rotatable=0;labelPosition=right;points=[];portConstraint=eastwest;strokeColor=inherit;" vertex="1" parent="yO6hfBPIhU9H3jWmT5L4-50">
          <mxGeometry y="43.8" width="131" height="22.425742574257434" as="geometry" />
        </mxCell>
        <mxCell id="yO6hfBPIhU9H3jWmT5L4-144" value="" style="group" vertex="1" connectable="0" parent="yO6hfBPIhU9H3jWmT5L4-108">
          <mxGeometry y="40" width="60" height="50.8" as="geometry" />
        </mxCell>
        <mxCell id="yO6hfBPIhU9H3jWmT5L4-52" value="" style="shape=datastore;whiteSpace=wrap;html=1;" vertex="1" parent="yO6hfBPIhU9H3jWmT5L4-144">
          <mxGeometry width="60" height="50.8" as="geometry" />
        </mxCell>
        <mxCell id="yO6hfBPIhU9H3jWmT5L4-59" value="" style="rounded=1;whiteSpace=wrap;html=1;fillColor=#dae8fc;strokeColor=#6c8ebf;" vertex="1" parent="yO6hfBPIhU9H3jWmT5L4-144">
          <mxGeometry x="5" y="27.477227722772398" width="16" height="14.950495049504958" as="geometry" />
        </mxCell>
        <mxCell id="yO6hfBPIhU9H3jWmT5L4-61" value="" style="rounded=1;whiteSpace=wrap;html=1;fillColor=#f8cecc;strokeColor=#b85450;" vertex="1" parent="yO6hfBPIhU9H3jWmT5L4-144">
          <mxGeometry x="25" y="27.477227722772398" width="16" height="14.950495049504958" as="geometry" />
        </mxCell>
        <mxCell id="yO6hfBPIhU9H3jWmT5L4-112" value="4.1" style="curved=1;startArrow=none;endArrow=block;endSize=16;endFill=0;exitX=1;exitY=0.5;rounded=0;exitDx=0;exitDy=0;entryX=0;entryY=0.25;entryDx=0;entryDy=0;fillColor=#dae8fc;strokeColor=#6c8ebf;" edge="1" parent="1" source="yO6hfBPIhU9H3jWmT5L4-142" target="yO6hfBPIhU9H3jWmT5L4-55">
          <mxGeometry relative="1" as="geometry">
            <Array as="points" />
            <mxPoint x="468" y="1109.5" as="sourcePoint" />
            <mxPoint x="598" y="1080" as="targetPoint" />
          </mxGeometry>
        </mxCell>
        <mxCell id="yO6hfBPIhU9H3jWmT5L4-113" value="4.2" style="curved=1;startArrow=none;endArrow=block;endSize=16;endFill=0;exitX=1;exitY=0.5;rounded=0;exitDx=0;exitDy=0;entryX=0;entryY=0.5;entryDx=0;entryDy=0;fillColor=#f8cecc;strokeColor=#b85450;" edge="1" parent="1" source="yO6hfBPIhU9H3jWmT5L4-141" target="yO6hfBPIhU9H3jWmT5L4-55">
          <mxGeometry relative="1" as="geometry">
            <Array as="points" />
            <mxPoint x="468" y="1179" as="sourcePoint" />
            <mxPoint x="598" y="1110" as="targetPoint" />
          </mxGeometry>
        </mxCell>
        <mxCell id="yO6hfBPIhU9H3jWmT5L4-114" value="4.3" style="curved=1;startArrow=none;endArrow=block;endSize=16;endFill=0;exitX=1;exitY=0.5;rounded=0;exitDx=0;exitDy=0;entryX=0;entryY=1;entryDx=0;entryDy=0;fillColor=#d5e8d4;strokeColor=#82b366;" edge="1" parent="1" source="yO6hfBPIhU9H3jWmT5L4-139" target="yO6hfBPIhU9H3jWmT5L4-55">
          <mxGeometry relative="1" as="geometry">
            <Array as="points" />
            <mxPoint x="467.99999999999955" y="1359.1999999999998" as="sourcePoint" />
            <mxPoint x="608" y="1090" as="targetPoint" />
          </mxGeometry>
        </mxCell>
        <mxCell id="yO6hfBPIhU9H3jWmT5L4-115" value="4.4" style="curved=1;startArrow=none;endArrow=block;endSize=16;endFill=0;exitX=1;exitY=0.5;rounded=0;exitDx=0;exitDy=0;entryX=0.25;entryY=1;entryDx=0;entryDy=0;fillColor=#ffe6cc;strokeColor=#d79b00;" edge="1" parent="1" source="yO6hfBPIhU9H3jWmT5L4-140" target="yO6hfBPIhU9H3jWmT5L4-55">
          <mxGeometry relative="1" as="geometry">
            <Array as="points" />
            <mxPoint x="468" y="1437.0000000000005" as="sourcePoint" />
            <mxPoint x="668" y="1180" as="targetPoint" />
          </mxGeometry>
        </mxCell>
        <mxCell id="yO6hfBPIhU9H3jWmT5L4-116" value="" style="group" vertex="1" connectable="0" parent="1">
          <mxGeometry x="960" y="1010" width="460" height="252" as="geometry" />
        </mxCell>
        <mxCell id="yO6hfBPIhU9H3jWmT5L4-117" value="&lt;b&gt;Org D - Data Aggregator&lt;/b&gt;" style="rounded=0;whiteSpace=wrap;html=1;verticalAlign=top;" vertex="1" parent="yO6hfBPIhU9H3jWmT5L4-116">
          <mxGeometry width="390" height="252" as="geometry" />
        </mxCell>
        <mxCell id="yO6hfBPIhU9H3jWmT5L4-118" value="Data Aggregator 1" style="swimlane;fontStyle=1;align=center;verticalAlign=top;childLayout=stackLayout;horizontal=1;startSize=43.8;horizontalStack=0;resizeParent=1;resizeParentMax=0;resizeLast=0;collapsible=0;marginBottom=0;swimlaneLine=0;swimlaneHead=1;swimlaneBody=1;" vertex="1" parent="yO6hfBPIhU9H3jWmT5L4-116">
          <mxGeometry x="20" y="58.15" width="130" height="64.56923076923077" as="geometry" />
        </mxCell>
        <mxCell id="yO6hfBPIhU9H3jWmT5L4-119" style="line;strokeWidth=1;fillColor=none;align=left;verticalAlign=middle;spacingTop=-1;spacingLeft=3;spacingRight=3;rotatable=0;labelPosition=right;points=[];portConstraint=eastwest;strokeColor=inherit;" vertex="1" parent="yO6hfBPIhU9H3jWmT5L4-118">
          <mxGeometry y="43.8" width="130" height="20.76923076923077" as="geometry" />
        </mxCell>
        <mxCell id="yO6hfBPIhU9H3jWmT5L4-121" value="Data Aggregator 2" style="swimlane;fontStyle=1;align=center;verticalAlign=top;childLayout=stackLayout;horizontal=1;startSize=43.8;horizontalStack=0;resizeParent=1;resizeParentMax=0;resizeLast=0;collapsible=0;marginBottom=0;swimlaneLine=0;swimlaneHead=1;swimlaneBody=1;" vertex="1" parent="yO6hfBPIhU9H3jWmT5L4-116">
          <mxGeometry x="250" y="58.15" width="120" height="64.56923076923077" as="geometry" />
        </mxCell>
        <mxCell id="yO6hfBPIhU9H3jWmT5L4-122" style="line;strokeWidth=1;fillColor=none;align=left;verticalAlign=middle;spacingTop=-1;spacingLeft=3;spacingRight=3;rotatable=0;labelPosition=right;points=[];portConstraint=eastwest;strokeColor=inherit;" vertex="1" parent="yO6hfBPIhU9H3jWmT5L4-121">
          <mxGeometry y="43.8" width="120" height="20.76923076923077" as="geometry" />
        </mxCell>
        <mxCell id="yO6hfBPIhU9H3jWmT5L4-130" value="Final Aggregator" style="swimlane;fontStyle=1;align=center;verticalAlign=top;childLayout=stackLayout;horizontal=1;startSize=43.8;horizontalStack=0;resizeParent=1;resizeParentMax=0;resizeLast=0;collapsible=0;marginBottom=0;swimlaneLine=0;swimlaneHead=1;swimlaneBody=1;" vertex="1" parent="yO6hfBPIhU9H3jWmT5L4-116">
          <mxGeometry x="111.4" y="172" width="147.2" height="58.8" as="geometry" />
        </mxCell>
        <mxCell id="yO6hfBPIhU9H3jWmT5L4-131" style="line;strokeWidth=1;fillColor=none;align=left;verticalAlign=middle;spacingTop=-1;spacingLeft=3;spacingRight=3;rotatable=0;labelPosition=right;points=[];portConstraint=eastwest;strokeColor=inherit;" vertex="1" parent="yO6hfBPIhU9H3jWmT5L4-130">
          <mxGeometry y="43.8" width="147.2" height="15" as="geometry" />
        </mxCell>
        <mxCell id="yO6hfBPIhU9H3jWmT5L4-133" value="Shares" style="curved=0;startArrow=none;endArrow=open;endSize=12;exitX=0.5;exitY=1;rounded=0;exitDx=0;exitDy=0;entryX=0.75;entryY=0;entryDx=0;entryDy=0;" edge="1" parent="yO6hfBPIhU9H3jWmT5L4-116" source="yO6hfBPIhU9H3jWmT5L4-121" target="yO6hfBPIhU9H3jWmT5L4-130">
          <mxGeometry relative="1" as="geometry">
            <Array as="points" />
            <mxPoint x="255" y="87.75" as="sourcePoint" />
            <mxPoint x="321" y="107.75" as="targetPoint" />
          </mxGeometry>
        </mxCell>
        <mxCell id="yO6hfBPIhU9H3jWmT5L4-132" value="Shares" style="curved=0;startArrow=none;endArrow=open;endSize=12;exitX=0.5;exitY=1;rounded=0;exitDx=0;exitDy=0;entryX=0.5;entryY=0;entryDx=0;entryDy=0;" edge="1" parent="yO6hfBPIhU9H3jWmT5L4-116" source="yO6hfBPIhU9H3jWmT5L4-118" target="yO6hfBPIhU9H3jWmT5L4-130">
          <mxGeometry relative="1" as="geometry">
            <Array as="points" />
            <mxPoint x="-112" y="-526.25" as="sourcePoint" />
            <mxPoint x="-22" y="-529.25" as="targetPoint" />
          </mxGeometry>
        </mxCell>
        <mxCell id="yO6hfBPIhU9H3jWmT5L4-145" value="Sync" style="curved=0;startArrow=classicThin;endArrow=classicThin;endSize=12;exitX=1;exitY=0.5;rounded=0;exitDx=0;exitDy=0;entryX=0;entryY=0.5;entryDx=0;entryDy=0;dashed=1;endFill=1;startFill=1;" edge="1" parent="yO6hfBPIhU9H3jWmT5L4-116" source="yO6hfBPIhU9H3jWmT5L4-118" target="yO6hfBPIhU9H3jWmT5L4-121">
          <mxGeometry relative="1" as="geometry">
            <Array as="points" />
            <mxPoint x="105" y="133" as="sourcePoint" />
            <mxPoint x="158" y="182" as="targetPoint" />
          </mxGeometry>
        </mxCell>
        <mxCell id="yO6hfBPIhU9H3jWmT5L4-136" value="6. Updated AI model" style="curved=0;startArrow=none;endArrow=block;endSize=16;endFill=0;rounded=0;entryX=1;entryY=0.5;entryDx=0;entryDy=0;exitX=0.5;exitY=1;exitDx=0;exitDy=0;" edge="1" parent="1" source="yO6hfBPIhU9H3jWmT5L4-130" target="yO6hfBPIhU9H3jWmT5L4-63">
          <mxGeometry relative="1" as="geometry">
            <Array as="points" />
            <mxPoint x="940" y="1300" as="sourcePoint" />
            <mxPoint x="718" y="1180" as="targetPoint" />
          </mxGeometry>
        </mxCell>
        <mxCell id="yO6hfBPIhU9H3jWmT5L4-137" value="7. Updated AI model" style="curved=0;startArrow=none;endArrow=block;endSize=16;endFill=0;exitX=1;exitY=0.75;rounded=0;exitDx=0;exitDy=0;entryX=0;entryY=0.5;entryDx=0;entryDy=0;" edge="1" parent="1" source="yO6hfBPIhU9H3jWmT5L4-63" target="yO6hfBPIhU9H3jWmT5L4-42">
          <mxGeometry relative="1" as="geometry">
            <Array as="points" />
            <mxPoint x="720" y="1346" as="sourcePoint" />
            <mxPoint x="718" y="1180" as="targetPoint" />
          </mxGeometry>
        </mxCell>
        <mxCell id="yO6hfBPIhU9H3jWmT5L4-139" value="Org F - &lt;br&gt;Edge computing" style="rounded=0;whiteSpace=wrap;html=1;fontStyle=1;fillColor=#d5e8d4;strokeColor=#82b366;" vertex="1" parent="1">
          <mxGeometry x="338" y="1350" width="120" height="40" as="geometry" />
        </mxCell>
        <mxCell id="yO6hfBPIhU9H3jWmT5L4-140" value="Org F - &lt;br&gt;Edge computing" style="rounded=0;whiteSpace=wrap;html=1;fontStyle=1;fillColor=#ffe6cc;strokeColor=#d79b00;" vertex="1" parent="1">
          <mxGeometry x="338" y="1406" width="120" height="40" as="geometry" />
        </mxCell>
        <mxCell id="yO6hfBPIhU9H3jWmT5L4-141" value="Org F - &lt;br&gt;Edge computing" style="rounded=0;whiteSpace=wrap;html=1;fontStyle=1;fillColor=#f8cecc;strokeColor=#b85450;" vertex="1" parent="1">
          <mxGeometry x="350" y="1040" width="120" height="40" as="geometry" />
        </mxCell>
        <mxCell id="yO6hfBPIhU9H3jWmT5L4-142" value="Org F - &lt;br&gt;Edge computing" style="rounded=0;whiteSpace=wrap;html=1;fontStyle=1;fillColor=#dae8fc;strokeColor=#6c8ebf;" vertex="1" parent="1">
          <mxGeometry x="350" y="980" width="120" height="40" as="geometry" />
        </mxCell>
        <mxCell id="yO6hfBPIhU9H3jWmT5L4-143" value="2.3" style="curved=1;startArrow=none;endArrow=block;endSize=16;endFill=0;exitX=0;exitY=0.75;rounded=0;exitDx=0;exitDy=0;entryX=1;entryY=0.75;entryDx=0;entryDy=0;fillColor=#f8cecc;strokeColor=#b85450;" edge="1" parent="1" source="yO6hfBPIhU9H3jWmT5L4-55" target="yO6hfBPIhU9H3jWmT5L4-50">
          <mxGeometry relative="1" as="geometry">
            <Array as="points" />
            <mxPoint x="610" y="1138" as="sourcePoint" />
            <mxPoint x="252" y="1135" as="targetPoint" />
          </mxGeometry>
        </mxCell>
      </root>
    </mxGraphModel>
  </diagram>
</mxfile>
